# xmcd
#
# Track frame offsets:
#	150
#	15842
#	55862
#	77337
#	100052
#	118730
#	167105
#	184452
#
# Disc length: 2750 seconds
#
# Revision: 25
# Processed by: cddbd v1.5.2PL0 Copyright (c) Steve Scherf et al.
# Submitted via: audiograbber 1.83.01
#
DISCID=580abc08
DTITLE=Genesis - Invisible Touch
DYEAR=1986
DGENRE=Progressive Rock
TTITLE0=Genesis - Invisible Touch
TTITLE1=Genesis - Tonight, Tonight, Tonight
TTITLE2=Genesis - Land Of Confusion
TTITLE3=Genesis - In Too Deep
TTITLE4=Genesis - Anything She Does
TTITLE5=Genesis - Domino
TTITLE6=Genesis - Throwing It All Away
TTITLE7=Genesis - The Brazilian
EXTD=
EXTT0=
EXTT1=
EXTT2=
EXTT3=
EXTT4=
EXTT5=Part One - In The Glow Of The Night\nPart Two - The Last Domino
EXTT6=
EXTT7=
PLAYORDER=
